<?xml version="1.0" standalone="no"?>
<!DOCTYPE svg PUBLIC "-//W3C//DTD SVG 20010904//EN"
 "http://www.w3.org/TR/2001/REC-SVG-20010904/DTD/svg10.dtd">
<svg version="1.0" xmlns="http://www.w3.org/2000/svg"
 width="566.000000pt" height="566.000000pt" viewBox="0 0 566.000000 566.000000"
 preserveAspectRatio="xMidYMid meet">
<metadata>
Created by potrace 1.11, written by Peter Selinger 2001-2013
</metadata>
<g transform="translate(0.000000,566.000000) scale(0.100000,-0.100000)"
fill="#000000" stroke="none">
<path d="M2370 5613 c-319 -15 -773 -65 -1123 -124 -466 -78 -524 -94 -585
-164 -71 -80 -74 -94 -112 -555 -71 -871 -94 -1347 -87 -1817 5 -362 16 -468
72 -703 174 -727 631 -1336 1335 -1781 223 -141 552 -298 820 -393 l106 -37
110 39 c61 22 161 61 222 87 l112 47 -178 347 c-97 191 -548 1071 -1001 1957
l-825 1610 -107 79 c-59 43 -114 91 -123 106 -14 23 -16 72 -16 356 0 456 -20
447 350 168 202 -152 260 -202 269 -227 6 -17 11 -89 11 -160 l0 -128 58 29
c165 83 360 129 582 137 241 9 369 -18 695 -148 264 -105 397 -148 537 -172
351 -61 686 -4 1025 174 90 47 93 48 97 27 12 -55 51 -784 60 -1094 l4 -153
-67 -48 c-206 -151 -512 -285 -716 -313 -155 -22 -291 6 -613 125 -221 82
-302 100 -447 99 -89 0 -141 -6 -200 -22 -98 -26 -251 -102 -247 -122 2 -7
264 -524 582 -1149 317 -624 594 -1168 614 -1208 l37 -73 37 22 c20 12 93 59
162 105 763 507 1220 1253 1300 2119 28 309 3 1047 -66 1915 -51 647 -55 673
-121 749 -63 75 -113 89 -558 165 -368 62 -728 103 -1112 126 -155 9 -727 11
-893 3z m696 -453 c480 -18 990 -75 1436 -161 65 -13 63 -8 73 -145 l7 -80
-116 -58 c-274 -134 -544 -189 -824 -166 -171 14 -325 50 -537 127 -490 178
-529 188 -765 188 -136 0 -185 -4 -281 -24 l-116 -24 -194 128 c-107 70 -189
129 -184 131 6 2 84 12 175 23 315 39 553 55 1020 69 25 1 162 -3 306 -8z
m-1315 -2921 c440 -881 798 -1604 795 -1607 -7 -6 -173 73 -301 145 -236 133
-422 272 -614 458 -290 283 -479 577 -595 930 -110 334 -137 616 -117 1179 12
315 22 496 27 496 2 0 364 -720 805 -1601z m2894 293 c-94 -556 -363 -1029
-802 -1411 l-72 -62 -14 23 c-8 13 -166 320 -351 683 -247 485 -349 677 -386
723 -28 34 -49 62 -46 62 3 0 85 -32 183 -71 98 -38 228 -83 288 -99 317 -84
590 -62 873 70 80 38 245 142 307 193 29 24 30 25 33 5 2 -11 -4 -63 -13 -116z"/>
</g>
</svg>
